<?xml version="1.0" encoding="utf-8"?>
<!-- Generator: Adobe Illustrator 17.1.0, SVG Export Plug-In . SVG Version: 6.00 Build 0)  -->
<!DOCTYPE svg PUBLIC "-//W3C//DTD SVG 1.1//EN" "http://www.w3.org/Graphics/SVG/1.1/DTD/svg11.dtd">
<svg version="1.1" id="Layer_1" xmlns="http://www.w3.org/2000/svg" xmlns:xlink="http://www.w3.org/1999/xlink" x="0px" y="0px"
	 viewBox="0 0 717.64 127.69" enable-background="new 0 0 717.64 127.69" xml:space="preserve">
<g>
	<g>
		<g>
			<g>
				<path fill="#006CB6" d="M229.61,86.51c0,10.76-0.36,15.6-3.05,20.62c-5.2,10.4-19.19,20.08-43.93,20.08
					c-19.73,0-33.35-5.38-40.88-15.6c-4.66-6.81-6.1-9.86-6.1-26.54v-85h32.28v81.59c0,11.48,3.59,19.19,14.88,19.19
					c11.48,0,14.71-6.46,14.71-18.65V0.08h32.1V86.51z"/>
				<path fill="#006CB6" d="M299.36,125.07V72.53h-25.64v52.54h-32.1V0.08h32.1v45.91h25.64V0.08h32.1v124.99H299.36z"/>
				<path fill="#006CB6" d="M404.09,125.07l-22.06-43.39c-3.23-6.45-6.99-15.42-9.68-23.49c0.72,4.84,1.79,16.32,1.79,31.74v35.15
					h-30.48V0.08h30.84l22.77,42.86c3.58,6.63,7.35,15.42,10.4,23.85c-0.9-7.35-1.08-19.72-1.08-27.97V0.08h30.48v124.99H404.09z"/>
			</g>
		</g>
	</g>
	<g>
		<g>
			<g>
				<g>
					<path fill="#CBB677" d="M82.45,24.5c-0.83,5.86-2.77,9.73-1.2,18.06c2.67,14.11,11.82,13.58,12.08,28.63
						c0,0.24,0.2,0.43,0.43,0.42c0.18,0,0.33-0.1,0.4-0.26c4.65-7.19,7.6-16.43,7.92-26.82c0.32-14.69-6.01-27.19-16.69-36.01
						c-0.11-0.07-0.14-0.22-0.07-0.34c0.07-0.12,0.22-0.15,0.33-0.07c16.08,10.71,23.85,28.22,20.05,46.83
						c-2.43,12.14-8.59,22.03-17.4,27.59c-3.96,2.49-6.33,3.4-10.64,4.51c-0.27,0.09-0.27,0.52,0.03,0.62
						c0.74,0.34,1.42,0.68,2.06,1.04c0.25,0.14,0.48,0.14,0.72-0.05c7.1-4.51,16.27-8.15,25.94-9.38c3.29-0.42,10.22-1.66,9.38-6.55
						c-0.48-1.94-0.66-3.61-1.15-5.52c-0.49-1.91,1.35-2.61,2.29-3.39c1.01-1.58,0.17-2.76-1.24-3.74c-0.47-0.33-0.4-0.66-0.15-0.71
						c1.56-0.11,2.84-1.36,2.51-2.56c-0.63-1.59-2.81-4.18-0.88-6.73c1.05-1.4,1.37-1.68,3.31-2.15c1.82-0.45,2.61-2.59,1.66-3.85
						c-3.49-4.45-6.15-7.64-9.58-12.03c-1.61-3.24,2.64-7.61-1.2-11.62C101.8,10.41,89.3,2.07,71.9,0.07
						c-0.31,0-0.57,0.27-0.57,0.58c0.64,4.02,3.5,6.77,6.18,9.3C81.45,13.65,83.21,19.16,82.45,24.5"/>
					<path fill="#CBB677" d="M115.59,103.23c0.15-0.27,0-0.66-0.26-0.81c-3.76-1.45-7.56-0.32-11.06,0.75
						c-5.15,1.6-10.75,0.38-14.96-2.96c-4.6-3.65-6.96-7.29-14.88-10.07c-13.44-4.73-17.56,3.53-30.6-3.75
						c-0.21-0.12-0.47-0.04-0.59,0.17c-0.08,0.15-0.06,0.34,0.05,0.48c3.83,7.66,10.28,14.86,19.04,20.33
						c12.44,7.61,26.32,8.35,39.23,3.42c0.12-0.06,0.26-0.02,0.33,0.1c0.06,0.12,0.01,0.27-0.11,0.34
						c-17.22,8.7-36.12,6.73-50.18-5.89c-9.19-8.19-14.6-18.53-14.96-29.01c-0.15-4.71,0.25-7.23,1.45-11.56
						c0.08-0.28-0.28-0.5-0.55-0.28c-0.65,0.47-1.29,0.89-1.91,1.26c-0.25,0.16-0.36,0.36-0.32,0.66
						c-0.03,11.01-1.97,24.12-6.99,35.8c-0.68,1.6-0.04,3.53,0.97,4.61c1.39,1.5,2.63,1.09,4.32,2c1.57,0.53,2.22,2.81,2.63,3.9
						c0.83,0.99,1.78,0.97,2.37,0.71c0.12-0.06,0.31-0.02,0.31-0.02c0.07,0.46,0.25,1.37,1.1,2.04c0.5,0.25,3.07-0.57,3.88,0.8
						c1.17,1.88-0.02,5.11,2.41,5.99c3.49,0.07,7.98-1.64,11.99-1.03c4.25,0.73,7.09,4.13,11.33,5.47c3.02,0.89,5.81,1.3,8.75,0.79
						C91.43,124.37,105.2,117.22,115.59,103.23"/>
					<path fill="#CBB677" d="M4.97,89.7c0.16,0.27,0.57,0.34,0.83,0.18c3.12-2.57,4.06-6.44,4.89-10.05
						c1.21-5.29,5.05-9.59,10.01-11.61c5.42-2.2,9.73-2.44,16.08-7.97c10.78-9.39,5.75-17.12,18.51-24.87
						c0.2-0.12,0.27-0.4,0.16-0.6c-0.1-0.15-0.27-0.23-0.43-0.21c-8.51-0.47-17.89,1.57-26.97,6.5
						C15.31,48.11,7.74,59.89,5.52,73.65c-0.01,0.13-0.11,0.23-0.24,0.23c-0.14,0-0.25-0.12-0.24-0.26
						c1.14-19.41,12.29-34.96,30.12-40.95c11.64-3.95,23.21-3.51,32.37,1.43c4.11,2.21,6.09,3.84,9.2,7.05
						c0.2,0.2,0.57-0.01,0.51-0.34c-0.08-0.81-0.12-1.57-0.13-2.3c-0.02-0.3-0.13-0.51-0.4-0.62c-7.43-3.96-15.14-10.16-21.04-18.01
						c-2.01-2.68-6.12-7.32-10.31-4.93c-1.72,1.01-2.07,1.48-3.49,3.26c-1.23,1.53-3.77,0.92-4.74,0.21
						c-1.86-0.1-3.33,1.52-3.05,3.22c0.08,0.48-0.37,0.67-0.53,0.49c-0.89-1.32-3.71-1.6-4.63-0.03c-0.14,1.13-1.46,3.95-3.45,2.69
						c-2.28-1.81-4.76-1.72-5.85,0.27c-1.91,3.87-1.9,4.63-6.1,11.56c-2.34,2.97-9.61,5.64-10.95,9.63
						C-0.81,59.49-1.63,73.14,4.97,89.7"/>
				</g>
			</g>
		</g>
	</g>
	<g>
		<path fill="#006CB6" d="M475.43,9.08c0,5-3.88,9.03-10.98,9.03h-4.54v6.72c0,5.38,0.61,6.29,4.85,6.29v1.13h-13.79v-1.13
			c4.24,0,4.85-0.92,4.85-6.29V7.36c0-5.37-0.61-6.24-4.85-6.24V0h13.48C471.55,0,475.43,4.08,475.43,9.08z M470.89,9.08
			c0-3.87-2.04-7.09-6.48-7.09h-4.49v14.19h4.49C468.85,16.18,470.89,13.01,470.89,9.08z"/>
		<path fill="#006CB6" d="M491.51,19.29c-0.97,0-1.79-0.91-1.79-1.93c0-1.13-0.61-1.77-1.63-1.77c-1.17,0-3.93,1.99-3.93,6.29v2.95
			c0,5.38,0.61,6.29,4.03,6.29v1.13H476.5v-1.13c3.37,0,4.03-0.92,4.03-6.29v-2.69c0-5.37-0.66-6.24-4.03-6.24v-1.13l6.79-1.35
			c0.26,0.54,0.72,2.74,0.87,3.87c1.02-2.15,3.32-3.87,5.36-3.87c2.81,0,4.03,1.99,4.03,3.33C493.56,17.95,493.1,19.29,491.51,19.29
			z"/>
		<path fill="#006CB6" d="M495.8,32.25v-1.13c3.37,0,4.04-0.92,4.04-6.29v-2.69c0-5.37-0.66-6.24-4.04-6.24v-1.13l7.66-1.35v11.39
			c0,5.38,0.61,6.29,4.03,6.29v1.13H495.8z M501.62,8.17c-1.23,0-2.25-1.07-2.25-2.42c0-1.29,1.02-2.37,2.25-2.37
			c1.22,0,2.25,1.08,2.25,2.37C503.87,7.09,502.84,8.17,501.62,8.17z"/>
		<path fill="#006CB6" d="M524.39,13.44c4.59,0,6.64,3.44,6.64,8.01v3.38c0,5.38,0.61,6.29,4.03,6.29v1.13h-11.69v-1.13
			c3.32,0,4.03-0.92,4.03-6.29v-3.12c0-3.49-1.18-5.75-4.24-5.75c-2.81,0-5.87,2.42-5.87,5.37v3.49c0,5.54,0.41,6.29,3.58,6.29v1.13
			h-11.24v-1.13c3.37,0,4.04-0.92,4.04-6.29v-2.69c0-5.37-0.67-6.24-4.04-6.24v-1.13l6.79-1.35c0.25,0.54,0.71,2.74,0.87,3.87
			C518.67,15.48,521.02,13.44,524.39,13.44z"/>
		<path fill="#006CB6" d="M539.55,23.75c0,4.3,1.99,7.15,6.18,7.15c1.68,0,3.78-0.81,5.46-2.47l0.87,1.18
			c-1.94,2.2-4.7,3.55-7.61,3.55c-5.67,0-9.04-4.03-9.04-9.41c0-6.34,4.96-10.32,9.04-10.32c4.24,0,6.08,1.88,6.08,3.87
			c0,0.86-0.51,2.31-2.25,2.31c-1.12,0-1.99-0.97-1.99-2.15c0-1.77-0.92-2.31-1.84-2.31C541.75,15.16,539.55,18.81,539.55,23.75z"/>
		<path fill="#006CB6" d="M564.16,30.9c1.68,0,4.14-1.02,5.62-2.47l0.92,1.18c-1.79,1.99-4.9,3.55-7.81,3.55
			c-5.62,0-9.45-4.46-9.45-9.89c0-5.7,4.7-9.84,9.45-9.84c4.54,0,8.17,3.87,6.94,8.49h-12.31C556.91,26.98,558.9,30.9,564.16,30.9z
			 M566.3,19.94c0.56-1.72-0.31-4.35-3.68-4.35c-2.2,0-4.09,1.72-4.8,4.35H566.3z"/>
		<path fill="#006CB6" d="M580.19,33.16c-3.52,0-5.46-3.82-5.46,0h-1.02v-7.85h1.02c0,2.42,1.94,6.02,5.62,6.02
			c1.63,0,2.86-1.24,2.86-2.74c0-1.35-1.07-2.31-2.86-3.28l-2.81-1.61c-2.5-1.4-3.42-3.65-3.42-5.38c0-2.9,2.55-4.89,5.21-4.89
			c3.83,0,4.6,2.8,4.6,0h1.07v6.24h-1.07c0-2.26-1.53-4.51-4.14-4.51c-1.74,0-2.6,0.96-2.6,2.31c0,1.29,0.87,1.99,3.12,3.28
			l2.45,1.4c2.25,1.35,3.52,3.23,3.52,5.16C586.26,30.85,583.51,33.16,580.19,33.16z"/>
		<path fill="#006CB6" d="M595.66,33.16c-3.52,0-5.46-3.82-5.46,0h-1.02v-7.85h1.02c0,2.42,1.94,6.02,5.62,6.02
			c1.63,0,2.86-1.24,2.86-2.74c0-1.35-1.07-2.31-2.86-3.28L593,23.7c-2.5-1.4-3.42-3.65-3.42-5.38c0-2.9,2.55-4.89,5.21-4.89
			c3.83,0,4.6,2.8,4.6,0h1.07v6.24h-1.07c0-2.26-1.53-4.51-4.14-4.51c-1.74,0-2.61,0.96-2.61,2.31c0,1.29,0.87,1.99,3.12,3.28
			l2.45,1.4c2.25,1.35,3.52,3.23,3.52,5.16C601.73,30.85,598.98,33.16,595.66,33.16z"/>
		<path fill="#006CB6" d="M457.71,71.24c0,5.38,0.67,6.29,4.9,6.29v1.12h-11.64v-1.12c4.24,0,4.85-0.92,4.85-6.29V53.77
			c0-5.37-0.61-6.24-4.85-6.24v-1.13h8.68l10.83,26.17l10.78-26.17h8.02v1.13c-4.29,0-4.9,0.86-4.9,6.24v17.47
			c0,5.38,0.61,6.29,4.9,6.29v1.12h-13.79v-1.12c4.24,0,4.85-0.92,4.85-6.29V53.72l-10.62,25.85h-0.67l-11.34-27.47V71.24z"/>
		<path fill="#006CB6" d="M505.5,79.25c-1.99,0-3.22-1.18-3.47-3.12c-2.5,2.36-4.34,3.23-6.38,3.23c-2.5,0-4.6-1.67-4.6-4.52
			c0-4.57,5.06-6.56,10.88-7.63c0-4.03-0.51-5.64-3.42-5.64c-1.18,0-2.91,0.86-2.91,2.58c0,1.08-0.77,1.88-1.74,1.88
			c-1.02,0-1.79-0.81-1.79-1.88c0-2.58,3.22-4.3,6.48-4.3c4.95,0,7,2.2,7,7.31v8.12c0,1.34,0.41,2.1,1.17,2.1
			c0.51,0,1.07-0.43,1.43-0.81l0.71,1.02C507.9,78.66,506.62,79.25,505.5,79.25z M501.93,68.88c-4.85,1.18-7.05,2.95-7.05,5.32
			c0,1.72,1.12,2.74,2.4,2.74c1.07,0,2.3-0.38,4.65-2.58V68.88z"/>
		<path fill="#006CB6" d="M525.62,65.71c-0.97,0-1.79-0.91-1.79-1.93c0-1.13-0.61-1.77-1.63-1.77c-1.18,0-3.93,1.99-3.93,6.29v2.95
			c0,5.38,0.61,6.29,4.03,6.29v1.12H510.6v-1.12c3.37,0,4.04-0.92,4.04-6.29v-2.69c0-5.37-0.67-6.24-4.04-6.24v-1.13l6.79-1.35
			c0.26,0.54,0.72,2.74,0.87,3.87c1.02-2.15,3.32-3.87,5.36-3.87c2.81,0,4.03,1.99,4.03,3.34C527.66,64.36,527.2,65.71,525.62,65.71
			z"/>
		<path fill="#006CB6" d="M537.87,78.77c7.05,0.59,9.29,3.76,9.29,7.04c0,4.46-4.03,7.2-9.04,7.2c-8.63,0-12-6.67-5.72-10.1
			l0.92,0.59c-4.24,5,0.77,7.42,4.8,7.42c3.17,0,6.33-1.61,6.33-4.14c0-2.52-2.55-3.33-6.84-3.76c-4.19-0.43-7.25-1.77-7.25-5
			c0-1.94,1.63-3.44,4.29-4.3c-2.55-1.29-4.29-3.65-4.29-6.56c0-4.03,3.42-7.31,7.61-7.31c2.04,0,3.88,0.75,5.26,2.04
			c0.92-1.18,2.76-2.04,3.83-2.04c3.52,0,3.73,4.41,1.68,4.51c-2.25,0.16-0.97-2.41-3.06-2.41c-0.41,0-1.02,0.27-1.58,0.86
			c0.92,1.18,1.48,2.74,1.48,4.35c0,3.98-3.32,6.83-6.64,7.31c-2.25,0.27-5.72,0.81-5.72,2.26
			C533.22,78.18,536.18,78.61,537.87,78.77z M537.97,61.57c-2.5,0-3.73,2.42-3.73,5.59c0,3.12,1.23,5.54,3.73,5.54
			c2.5,0,3.68-2.42,3.68-5.54C541.65,63.99,540.47,61.57,537.97,61.57z"/>
		<path fill="#006CB6" d="M566.2,79.25c-1.99,0-3.21-1.18-3.47-3.12c-2.5,2.36-4.34,3.23-6.38,3.23c-2.5,0-4.6-1.67-4.6-4.52
			c0-4.57,5.06-6.56,10.88-7.63c0-4.03-0.51-5.64-3.42-5.64c-1.18,0-2.91,0.86-2.91,2.58c0,1.08-0.77,1.88-1.74,1.88
			c-1.02,0-1.79-0.81-1.79-1.88c0-2.58,3.22-4.3,6.48-4.3c4.95,0,7,2.2,7,7.31v8.12c0,1.34,0.41,2.1,1.17,2.1
			c0.51,0,1.07-0.43,1.43-0.81l0.71,1.02C568.6,78.66,567.33,79.25,566.2,79.25z M562.63,68.88c-4.85,1.18-7.05,2.95-7.05,5.32
			c0,1.72,1.12,2.74,2.4,2.74c1.07,0,2.3-0.38,4.65-2.58V68.88z"/>
		<path fill="#006CB6" d="M586.32,65.71c-0.97,0-1.79-0.91-1.79-1.93c0-1.13-0.61-1.77-1.63-1.77c-1.18,0-3.93,1.99-3.93,6.29v2.95
			c0,5.38,0.61,6.29,4.03,6.29v1.12H571.3v-1.12c3.37,0,4.04-0.92,4.04-6.29v-2.69c0-5.37-0.67-6.24-4.04-6.24v-1.13l6.79-1.35
			c0.26,0.54,0.72,2.74,0.87,3.87c1.02-2.15,3.32-3.87,5.36-3.87c2.81,0,4.03,1.99,4.03,3.34C588.36,64.36,587.9,65.71,586.32,65.71
			z"/>
		<path fill="#006CB6" d="M600.71,77.31c1.68,0,4.14-1.02,5.62-2.47l0.92,1.18c-1.79,1.99-4.9,3.55-7.81,3.55
			c-5.62,0-9.45-4.46-9.45-9.89c0-5.7,4.7-9.84,9.45-9.84c4.54,0,8.17,3.87,6.94,8.49h-12.31
			C593.46,73.39,595.45,77.31,600.71,77.31z M602.86,66.35c0.56-1.72-0.31-4.35-3.68-4.35c-2.2,0-4.09,1.72-4.8,4.35H602.86z"/>
		<path fill="#006CB6" d="M608.47,62.64v-1.29c3.06-0.7,4.19-3.01,4.55-6.51h1.73v5.92h4.44v1.88h-4.44V73.5
			c0,2.58,0.67,3.92,2.3,3.92c0.92,0,2.14-0.7,3.32-1.88l0.87,0.91c-1.43,1.83-3.68,3.12-5.36,3.12c-2.81,0-4.75-1.88-4.75-6.07
			V62.64H608.47z"/>
		<path fill="#006CB6" d="M479.57,124.48c-0.26-1.29-1.07-2.58-1.74-3.06c-2.6,2.85-5.92,4.57-9.5,4.57
			c-8.63,0-15.68-7.69-15.68-17.04c0-9.35,7.05-17.04,15.68-17.04c3.57,0,6.89,1.66,9.5,4.57c0.66-0.54,1.48-1.72,1.74-3.07h1.02
			v11.83h-1.02C478.14,98.25,474.21,94,468.54,94c-8.17,0-11.13,8.28-11.13,14.94c0,6.67,2.96,14.89,11.13,14.89
			c5.67,0,9.6-4.3,11.03-11.18h1.02v11.83H479.57z"/>
		<path fill="#006CB6" d="M498.2,125.66c-1.99,0-3.21-1.18-3.47-3.12c-2.5,2.37-4.34,3.23-6.38,3.23c-2.5,0-4.6-1.67-4.6-4.51
			c0-4.57,5.06-6.56,10.88-7.63c0-4.03-0.51-5.64-3.42-5.64c-1.18,0-2.91,0.86-2.91,2.58c0,1.07-0.77,1.88-1.74,1.88
			c-1.02,0-1.79-0.81-1.79-1.88c0-2.58,3.22-4.3,6.48-4.3c4.95,0,7,2.2,7,7.31v8.12c0,1.35,0.41,2.09,1.17,2.09
			c0.51,0,1.07-0.43,1.43-0.81l0.71,1.02C500.6,125.07,499.32,125.66,498.2,125.66z M494.63,115.29c-4.85,1.18-7.05,2.96-7.05,5.33
			c0,1.72,1.12,2.74,2.4,2.74c1.07,0,2.3-0.38,4.65-2.58V115.29z"/>
		<path fill="#006CB6" d="M517.04,106.26c4.59,0,6.64,3.44,6.64,8.01v3.39c0,5.38,0.61,6.29,4.03,6.29v1.13h-11.69v-1.13
			c3.32,0,4.03-0.91,4.03-6.29v-3.12c0-3.5-1.18-5.75-4.24-5.75c-2.81,0-5.87,2.42-5.87,5.38v3.49c0,5.53,0.41,6.29,3.58,6.29v1.13
			h-11.24v-1.13c3.37,0,4.04-0.91,4.04-6.29v-2.69c0-5.38-0.67-6.24-4.04-6.24v-1.13l6.79-1.34c0.25,0.53,0.72,2.74,0.87,3.87
			C511.32,108.3,513.67,106.26,517.04,106.26z"/>
		<path fill="#006CB6" d="M532.2,116.58c0,4.3,1.99,7.15,6.18,7.15c1.68,0,3.78-0.81,5.46-2.47l0.87,1.18
			c-1.94,2.2-4.7,3.54-7.61,3.54c-5.67,0-9.04-4.03-9.04-9.4c0-6.34,4.95-10.32,9.04-10.32c4.24,0,6.08,1.88,6.08,3.87
			c0,0.86-0.51,2.31-2.25,2.31c-1.12,0-1.99-0.96-1.99-2.15c0-1.77-0.92-2.31-1.84-2.31C534.4,107.98,532.2,111.63,532.2,116.58z"/>
		<path fill="#006CB6" d="M556.81,123.73c1.68,0,4.14-1.02,5.62-2.47l0.92,1.18c-1.79,1.99-4.9,3.54-7.81,3.54
			c-5.62,0-9.45-4.46-9.45-9.89c0-5.7,4.7-9.83,9.45-9.83c4.54,0,8.17,3.87,6.94,8.49h-12.31
			C549.56,119.8,551.55,123.73,556.81,123.73z M558.95,112.76c0.56-1.72-0.31-4.36-3.68-4.36c-2.2,0-4.09,1.72-4.8,4.36H558.95z"/>
		<path fill="#006CB6" d="M580.09,112.12c-0.97,0-1.79-0.92-1.79-1.94c0-1.13-0.61-1.77-1.63-1.77c-1.18,0-3.93,1.99-3.93,6.29v2.96
			c0,5.38,0.61,6.29,4.03,6.29v1.13h-11.69v-1.13c3.37,0,4.04-0.91,4.04-6.29v-2.69c0-5.38-0.67-6.24-4.04-6.24v-1.13l6.79-1.34
			c0.25,0.53,0.72,2.74,0.87,3.87c1.02-2.15,3.32-3.87,5.36-3.87c2.81,0,4.03,1.99,4.03,3.33
			C582.13,110.77,581.67,112.12,580.09,112.12z"/>
		<path fill="#006CB6" d="M620.53,124.48c-0.25-1.29-1.07-2.58-1.74-3.06c-2.61,2.85-5.92,4.57-9.5,4.57
			c-8.63,0-15.68-7.69-15.68-17.04c0-9.35,7.05-17.04,15.68-17.04c3.57,0,6.89,1.66,9.5,4.57c0.66-0.54,1.48-1.72,1.74-3.07h1.02
			v11.83h-1.02C619.1,98.25,615.16,94,609.5,94c-8.17,0-11.13,8.28-11.13,14.94c0,6.67,2.96,14.89,11.13,14.89
			c5.67,0,9.6-4.3,11.03-11.18h1.02v11.83H620.53z"/>
		<path fill="#006CB6" d="M635.43,123.73c1.68,0,4.14-1.02,5.62-2.47l0.92,1.18c-1.79,1.99-4.9,3.54-7.81,3.54
			c-5.62,0-9.45-4.46-9.45-9.89c0-5.7,4.7-9.83,9.45-9.83c4.54,0,8.17,3.87,6.94,8.49h-12.31
			C628.18,119.8,630.17,123.73,635.43,123.73z M637.57,112.76c0.56-1.72-0.31-4.36-3.68-4.36c-2.2,0-4.09,1.72-4.8,4.36H637.57z"/>
		<path fill="#006CB6" d="M658.45,106.26c4.59,0,6.64,3.44,6.64,8.01v3.39c0,5.38,0.61,6.29,4.03,6.29v1.13h-11.69v-1.13
			c3.32,0,4.03-0.91,4.03-6.29v-3.12c0-3.5-1.18-5.75-4.24-5.75c-2.81,0-5.87,2.42-5.87,5.38v3.49c0,5.53,0.41,6.29,3.58,6.29v1.13
			h-11.24v-1.13c3.37,0,4.04-0.91,4.04-6.29v-2.69c0-5.38-0.67-6.24-4.04-6.24v-1.13l6.79-1.34c0.26,0.53,0.71,2.74,0.87,3.87
			C652.73,108.3,655.08,106.26,658.45,106.26z"/>
		<path fill="#006CB6" d="M668.46,109.06v-1.29c3.07-0.7,4.19-3.01,4.55-6.5h1.73v5.91h4.44v1.88h-4.44v10.85
			c0,2.58,0.67,3.93,2.3,3.93c0.92,0,2.15-0.7,3.32-1.88l0.87,0.92c-1.43,1.83-3.68,3.12-5.36,3.12c-2.81,0-4.75-1.88-4.75-6.07
			v-10.85H668.46z"/>
		<path fill="#006CB6" d="M697.35,112.12c-0.97,0-1.79-0.92-1.79-1.94c0-1.13-0.61-1.77-1.63-1.77c-1.18,0-3.93,1.99-3.93,6.29v2.96
			c0,5.38,0.61,6.29,4.03,6.29v1.13h-11.69v-1.13c3.37,0,4.04-0.91,4.04-6.29v-2.69c0-5.38-0.67-6.24-4.04-6.24v-1.13l6.79-1.34
			c0.25,0.53,0.71,2.74,0.87,3.87c1.02-2.15,3.32-3.87,5.36-3.87c2.81,0,4.03,1.99,4.03,3.33
			C699.39,110.77,698.93,112.12,697.35,112.12z"/>
		<path fill="#006CB6" d="M711.1,123.73c1.68,0,4.14-1.02,5.62-2.47l0.92,1.18c-1.79,1.99-4.9,3.54-7.81,3.54
			c-5.62,0-9.45-4.46-9.45-9.89c0-5.7,4.7-9.83,9.45-9.83c4.54,0,8.17,3.87,6.94,8.49h-12.31
			C703.85,119.8,705.84,123.73,711.1,123.73z M713.25,112.76c0.56-1.72-0.31-4.36-3.68-4.36c-2.2,0-4.09,1.72-4.8,4.36H713.25z"/>
	</g>
</g>
<g>
</g>
<g>
</g>
<g>
</g>
<g>
</g>
<g>
</g>
<g>
</g>
</svg>
