<?xml version="1.0" encoding="utf-8"?>
<svg viewBox="238.3 239.3 357.331 467.8" width="357.331" height="467.8" xmlns="http://www.w3.org/2000/svg">
  <defs>
    <style type="text/css">
	.st0{fill:url(#SVGID_1_);}
	.st1{fill:url(#SVGID_2_);}
	.st2{fill:url(#SVGID_3_);}
	.st3{fill:url(#SVGID_4_);}
	.st4{fill:url(#SVGID_5_);}
	.st5{fill:url(#SVGID_6_);}
	.st6{fill:#2A6CA6;}
	.st7{fill:url(#SVGID_7_);}
	.st8{fill:url(#SVGID_8_);}
	.st9{fill:url(#SVGID_9_);}
	.st10{fill:url(#SVGID_10_);}
	.st11{fill:url(#SVGID_11_);}
	.st12{fill:url(#SVGID_12_);}
	.st13{fill:url(#SVGID_13_);}
	.st14{fill:url(#SVGID_14_);}
	.st15{fill:url(#SVGID_15_);}
	.st16{fill:url(#SVGID_16_);}
	.st17{fill:#5F5F5F;}
	.st18{fill:url(#SVGID_17_);}
	.st19{fill:url(#SVGID_18_);}
	.st20{fill:url(#SVGID_19_);}
	.st21{fill:url(#SVGID_20_);}
	.st22{fill:url(#SVGID_21_);}
	.st23{fill:url(#SVGID_22_);}
	.st24{fill:url(#SVGID_23_);}
</style>
  </defs>
  <linearGradient id="SVGID_7_" gradientUnits="userSpaceOnUse" x1="258.1325" y1="575.6213" x2="324.1416" y2="575.6213" gradientTransform="matrix(-0.9726 -0.2326 -0.2326 0.9726 874.7082 103.8976)">
    <stop offset="0" style="stop-color:#71BF4C"/>
    <stop offset="1" style="stop-color:#4A961D"/>
  </linearGradient>
  <linearGradient id="SVGID_8_" gradientUnits="userSpaceOnUse" x1="320.1391" y1="249.0401" x2="436.1391" y2="821.0401" gradientTransform="matrix(-0.9726 -0.2326 -0.2326 0.9726 874.7082 103.8976)">
    <stop offset="0" style="stop-color:#2A6CA6"/>
    <stop offset="0.5249" style="stop-color:#1D91C4"/>
    <stop offset="1" style="stop-color:#2A6CA6"/>
  </linearGradient>
  <linearGradient id="SVGID_9_" gradientUnits="userSpaceOnUse" x1="155.2628" y1="282.4766" x2="271.2628" y2="854.4766" gradientTransform="matrix(-0.9726 -0.2326 -0.2326 0.9726 874.7082 103.8976)">
    <stop offset="0" style="stop-color:#2A6CA6"/>
    <stop offset="0.5249" style="stop-color:#1D91C4"/>
    <stop offset="1" style="stop-color:#2A6CA6"/>
  </linearGradient>
  <linearGradient id="SVGID_10_" gradientUnits="userSpaceOnUse" x1="165.4814" y1="280.4043" x2="281.4814" y2="852.4043" gradientTransform="matrix(-0.9726 -0.2326 -0.2326 0.9726 874.7082 103.8976)">
    <stop offset="0" style="stop-color:#2A6CA6"/>
    <stop offset="0.5249" style="stop-color:#1D91C4"/>
    <stop offset="1" style="stop-color:#2A6CA6"/>
  </linearGradient>
  <linearGradient id="SVGID_11_" gradientUnits="userSpaceOnUse" x1="168.4794" y1="279.7963" x2="284.4795" y2="851.7968" gradientTransform="matrix(-0.9726 -0.2326 -0.2326 0.9726 874.7082 103.8976)">
    <stop offset="0" style="stop-color:#2A6CA6"/>
    <stop offset="0.5249" style="stop-color:#1D91C4"/>
    <stop offset="1" style="stop-color:#2A6CA6"/>
  </linearGradient>
  <linearGradient id="SVGID_12_" gradientUnits="userSpaceOnUse" x1="160.1795" y1="281.4795" x2="276.1795" y2="853.4795" gradientTransform="matrix(-0.9726 -0.2326 -0.2326 0.9726 874.7082 103.8976)">
    <stop offset="0" style="stop-color:#2A6CA6"/>
    <stop offset="0.5249" style="stop-color:#1D91C4"/>
    <stop offset="1" style="stop-color:#2A6CA6"/>
  </linearGradient>
  <linearGradient id="SVGID_13_" gradientUnits="userSpaceOnUse" x1="162.7728" y1="280.9536" x2="278.7728" y2="852.9536" gradientTransform="matrix(-0.9726 -0.2326 -0.2326 0.9726 874.7082 103.8976)">
    <stop offset="0" style="stop-color:#2A6CA6"/>
    <stop offset="0.5249" style="stop-color:#1D91C4"/>
    <stop offset="1" style="stop-color:#2A6CA6"/>
  </linearGradient>
  <linearGradient id="SVGID_14_" gradientUnits="userSpaceOnUse" x1="157.6795" y1="281.9865" x2="273.6795" y2="853.9865" gradientTransform="matrix(-0.9726 -0.2326 -0.2326 0.9726 874.7082 103.8976)">
    <stop offset="0" style="stop-color:#2A6CA6"/>
    <stop offset="0.5249" style="stop-color:#1D91C4"/>
    <stop offset="1" style="stop-color:#2A6CA6"/>
  </linearGradient>
  <linearGradient id="SVGID_15_" gradientUnits="userSpaceOnUse" x1="224.7096" y1="268.3929" x2="340.7096" y2="840.3929" gradientTransform="matrix(-0.9726 -0.2326 -0.2326 0.9726 874.7082 103.8976)">
    <stop offset="0" style="stop-color:#2A6CA6"/>
    <stop offset="0.5249" style="stop-color:#1D91C4"/>
    <stop offset="1" style="stop-color:#2A6CA6"/>
  </linearGradient>
  <linearGradient id="SVGID_16_" gradientUnits="userSpaceOnUse" x1="467.18" y1="219.2206" x2="583.18" y2="791.2206" gradientTransform="matrix(-0.9726 -0.2326 -0.2326 0.9726 874.7082 103.8976)">
    <stop offset="0" style="stop-color:#2A6CA6"/>
    <stop offset="0.5249" style="stop-color:#1D91C4"/>
    <stop offset="1" style="stop-color:#2A6CA6"/>
  </linearGradient>
  <linearGradient id="SVGID_17_" gradientUnits="userSpaceOnUse" x1="189.4587" y1="299.7277" x2="507.1912" y2="299.7277" gradientTransform="matrix(-0.9726 -0.2326 -0.2326 0.9726 874.7082 103.8976)">
    <stop offset="0" style="stop-color:#71BF4C"/>
    <stop offset="1" style="stop-color:#4A961D"/>
  </linearGradient>
  <linearGradient id="SVGID_18_" gradientUnits="userSpaceOnUse" x1="189.4587" y1="549.3665" x2="507.1912" y2="549.3665" gradientTransform="matrix(-0.9726 -0.2326 -0.2326 0.9726 874.7082 103.8976)">
    <stop offset="0" style="stop-color:#71BF4C"/>
    <stop offset="1" style="stop-color:#4A961D"/>
  </linearGradient>
  <radialGradient id="SVGID_20_" cx="678.4968" cy="413.8968" r="14.4506" gradientTransform="matrix(0.517 -0.856 -0.856 -0.517 369.6147 1179.2332)" gradientUnits="userSpaceOnUse">
    <stop offset="0" style="stop-color:#90D86A"/>
    <stop offset="1" style="stop-color:#4A961D"/>
  </radialGradient>
  <radialGradient id="SVGID_21_" cx="709.6882" cy="404.9474" r="14.4506" gradientTransform="matrix(0.517 -0.856 -0.856 -0.517 369.6147 1179.2332)" gradientUnits="userSpaceOnUse">
    <stop offset="0" style="stop-color:#1D91C4"/>
    <stop offset="1" style="stop-color:#2A6CA6"/>
  </radialGradient>
  <radialGradient id="SVGID_22_" cx="719.2451" cy="434.2333" r="14.4506" gradientTransform="matrix(0.517 -0.856 -0.856 -0.517 369.6147 1179.2332)" gradientUnits="userSpaceOnUse">
    <stop offset="0" style="stop-color:#1D91C4"/>
    <stop offset="1" style="stop-color:#2A6CA6"/>
  </radialGradient>
  <radialGradient id="SVGID_23_" cx="688.8763" cy="446.0054" r="14.4506" gradientTransform="matrix(0.517 -0.856 -0.856 -0.517 369.6147 1179.2332)" gradientUnits="userSpaceOnUse">
    <stop offset="0" style="stop-color:#90D86A"/>
    <stop offset="1" style="stop-color:#4A961D"/>
  </radialGradient>
  <circle class="st7" cx="457.7" cy="596" r="33"/>
  <circle class="st8" cx="475.8" cy="335.4" r="33"/>
  <path class="st9" d="M546.6,583.9c-0.2-0.6-0.3-1.3-0.5-1.9C546.3,582.7,546.4,583.3,546.6,583.9z"/>
  <path class="st10" d="M542.3,568.9c-0.2-0.8-0.5-1.5-0.8-2.3C541.8,567.4,542,568.1,542.3,568.9z"/>
  <path class="st11" d="M541,565.1c-0.4-1-0.7-2-1.1-3C540.3,563.1,540.7,564.1,541,565.1z"/>
  <path class="st12" d="M544.6,576.4c-0.2-0.7-0.4-1.3-0.6-2C544.2,575.1,544.4,575.8,544.6,576.4z"/>
  <path class="st13" d="M543.5,572.7c-0.2-0.7-0.4-1.4-0.7-2.1C543.1,571.3,543.3,572,543.5,572.7z"/>
  <path class="st14" d="M545.6,580.2c-0.2-0.6-0.3-1.3-0.5-1.9C545.3,578.9,545.4,579.6,545.6,580.2z"/>
  <path class="st15" d="M594.8,268.1c0,0-35,137.6-126.5,125c-13.5-1.9-25.8-5.4-36.8-10.2c-3.2,10.1-8.8,19.5-16.6,27.3 c37.1,38.1,78.1,73.7,104,111.1c9,13,15.8,26.5,20.8,39.9c0,0,0,0,0,0c3.7,9.1,6.3,18.4,8.1,28c-0.2-1.2-0.5-2.3-0.8-3.5 c14.9,63.9-3.7,121.4-3.7,121.4c67-116.6-36.9-237.1-36.9-237.1C610.4,366.4,594.8,268.1,594.8,268.1z"/>
  <path class="st16" d="M332.3,239.3c-2.4,22.2,0.4,42.9,7.1,62.4c3.6-1.7,7.4-3,11.2-4C336.2,266.3,332.3,239.3,332.3,239.3z"/>
  <path class="st17" d="M545.1,578.3c-0.2-0.6-0.3-1.2-0.5-1.8C544.8,577.1,544.9,577.7,545.1,578.3z"/>
  <path class="st17" d="M542.8,570.6c-0.2-0.6-0.4-1.1-0.5-1.7C542.5,569.5,542.7,570,542.8,570.6z"/>
  <path class="st17" d="M544,574.4c-0.2-0.6-0.4-1.2-0.5-1.8C543.7,573.3,543.8,573.9,544,574.4z"/>
  <path class="st17" d="M541.5,566.6c-0.2-0.5-0.3-1-0.5-1.5C541.2,565.6,541.4,566.1,541.5,566.6z"/>
  <path class="st17" d="M546.1,582.1c-0.2-0.6-0.3-1.2-0.5-1.9C545.8,580.8,545.9,581.4,546.1,582.1z"/>
  <path class="st17" d="M539.6,561.3c0.1,0.3,0.2,0.5,0.3,0.8C539.8,561.8,539.7,561.6,539.6,561.3 C539.6,561.3,539.6,561.3,539.6,561.3z"/>
  <path class="st17" d="M547,585.8c-0.1-0.6-0.3-1.2-0.5-1.9C546.7,584.6,546.9,585.2,547,585.8z"/>
  <path class="st17" d="M539.6,561.3C539.6,561.3,539.6,561.3,539.6,561.3c0.1,0.3,0.2,0.5,0.3,0.8c0.4,1,0.7,2,1.1,3 c0.2,0.5,0.3,1,0.5,1.5c0.3,0.8,0.5,1.5,0.8,2.3c0.2,0.6,0.4,1.1,0.5,1.7c0.2,0.7,0.4,1.4,0.7,2.1c0.2,0.6,0.4,1.2,0.5,1.8 c0.2,0.7,0.4,1.3,0.6,2c0.2,0.6,0.3,1.2,0.5,1.8c0.2,0.6,0.3,1.3,0.5,1.9c0.2,0.6,0.3,1.2,0.5,1.9c0.2,0.6,0.3,1.3,0.5,1.9 c0.2,0.6,0.3,1.2,0.5,1.9c0.3,1.2,0.5,2.3,0.8,3.5C546,579.8,543.3,570.4,539.6,561.3z"/>
  <path class="st18" d="M320,244.2c-7.3,22.8-6,46.9,0.5,70.7c3.3-3.3,7-6.2,11.1-8.8C316.1,267.1,320,244.2,320,244.2z"/>
  <path class="st19" d="M383.6,427.9c22.7,28.2,42.4,46.4,42.4,46.4c-117.7,132.9-72.2,210.7-72.2,210.7s4.4-146.3,96.8-146.9 c98.8-0.7,85.1,163.5,85.1,163.5c11.1-23.7,16.1-94.8-8.2-146.2c-24.7-52-78.6-96.6-119.7-139c-1.6,1.2-3.4,2.4-5.2,3.5 C396.6,423.6,390.2,426.3,383.6,427.9z"/>
  <g>
    <g>
      <linearGradient id="SVGID_19_" gradientUnits="userSpaceOnUse" x1="238.9558" y1="373.1198" x2="426.8832" y2="373.1198">
        <stop offset="0" style="stop-color:#707175"/>
        <stop offset="0.4887" style="stop-color:#B7B8BC"/>
        <stop offset="1" style="stop-color:#707175"/>
      </linearGradient>
      <path class="st20" d="M418.1,331.6c-17.2-27.9-53.7-36.7-81.6-19.5c-25.1,15.4-34.7,46.5-23.9,72.9L241,428.9 c-2,1.3-2.7,3.9-1.4,6l3.7,6c1.3,2,3.9,2.7,6,1.4l71-43.6c18.2,24,52.1,30.7,78.3,14.6C426.5,396.1,435.3,359.6,418.1,331.6z M389.6,398.7c-19.9,12.2-45.9,6-58.1-13.9c-12.2-19.9-6-45.9,13.9-58.1c19.9-12.2,45.9-6,58.1,13.9 C415.8,360.5,409.5,386.5,389.6,398.7z"/>
    </g>
  </g>
  <circle class="st21" cx="366.1" cy="384.5" r="14.5"/>
  <circle class="st22" cx="389.9" cy="362.4" r="14.5"/>
  <circle class="st23" cx="369.7" cy="339.1" r="14.5"/>
  <circle class="st24" cx="343.9" cy="359" r="14.5"/>
</svg>